<svg id="logosandtypes_com" data-name="logosandtypes com" xmlns="http://www.w3.org/2000/svg" viewBox="0 0 150 150"><defs><style>.cls-1{fill:none;}.cls-2{fill:#e5002b;}</style></defs><path class="cls-1" d="M0,.2H150v150H0Z" transform="translate(0 -0.2)"/><path class="cls-2" d="M105.62,96.94v30.21c0,3.16-1.78,4.95-4.94,4.95H48.55c-3,0-4.88-1.82-4.88-4.85V66.51a3.27,3.27,0,0,1,2.76-3.61c8.88-2.43,17.76-4.89,26.66-7.27a6.38,6.38,0,0,1,3.07,0c9,2.42,18.08,4.92,27.11,7.4a3,3,0,0,1,2.35,3.24Z" transform="translate(0 -0.2)"/><path class="cls-2" d="M147.41,62a3.14,3.14,0,0,1-4.24,3.23L76.49,47.15a6.9,6.9,0,0,0-3.69,0q-33.24,9-66.45,18.07a3.36,3.36,0,0,1-4.51-3.43c.09-5.63,0-11.26,0-16.9C1.87,41.18,3.48,39,7,37.74q32.55-11.22,65.1-22.45a7.6,7.6,0,0,1,5.11,0c14.29,4.95,58,20,65.62,22.63a6.64,6.64,0,0,1,4.58,6.42C147.41,47.29,147.41,59.08,147.41,62Z" transform="translate(0 -0.2)"/></svg>